<svg xmlns="http://www.w3.org/2000/svg" width="30.881" height="26.494" viewBox="0 0 30.881 26.494"><defs><style>.a{fill:#fff;}</style></defs><g transform="translate(0 -58.95)"><g transform="translate(0 58.95)"><path class="a" d="M0,63.368V81.026a4.427,4.427,0,0,0,4.418,4.418H18.689a4.427,4.427,0,0,0,4.418-4.418v-2.86a.875.875,0,1,0-1.75,0v2.86A2.681,2.681,0,0,1,18.682,83.7H4.418a2.681,2.681,0,0,1-2.675-2.675V63.368a2.681,2.681,0,0,1,2.675-2.675H18.689a2.681,2.681,0,0,1,2.675,2.675v2.86a.875.875,0,1,0,1.75,0v-2.86A4.427,4.427,0,0,0,18.7,58.95H4.418A4.422,4.422,0,0,0,0,63.368Z" transform="translate(0 -58.95)"/><path class="a" d="M213.763,162.375a.876.876,0,0,1-1.238,0l-5.969-5.969a.867.867,0,0,1,0-1.231l5.969-5.969a.87.87,0,1,1,1.231,1.231l-4.482,4.482H225.63a.875.875,0,0,1,0,1.75H209.281l4.482,4.482A.859.859,0,0,1,213.763,162.375Z" transform="translate(-195.623 -142.547)"/></g></g></svg>